<svg width="397.30625px" height="108.6177001953125px" xmlns="http://www.w3.org/2000/svg" viewBox="51.34687500000001 20.691149902343753 397.30625 108.6177001953125" style="background: rgba(0, 0, 0, 0);" preserveAspectRatio="xMidYMid"><defs><filter id="editing-extrusion" x="-100%" y="-100%" width="300%" height="300%"><feFlood result="color1" flood-color="#444"></feFlood><feConvolveMatrix order="8,8" divisor="1" kernelMatrix="1 0 0 0 0 0 0 0 0 1 0 0 0 0 0 0 0 0 1 0 0 0 0 0 0 0 0 1 0 0 0 0 0 0 0 0 1 0 0 0 0 0 0 0 0 1 0 0 0 0 0 0 0 0 1 0 0 0 0 0 0 0 0 1" in="SourceAlpha" result="extrude"></feConvolveMatrix><feComposite in="color1" in2="extrude" result="comp-extrude" operator="in"></feComposite><feOffset dx="4" dy="4" in="comp-extrude" result="offset-extrude"></feOffset><feMerge><feMergeNode in="offset-extrude"></feMergeNode><feMergeNode in="SourceGraphic"></feMergeNode></feMerge></filter></defs><g filter="url(#editing-extrusion)"><g transform="translate(110.4449782371521, 99.04524993896484)"><path d="M8.83 0L3.65 0L3.65-46.08L8.83-46.08L8.83 0ZM54.98-29.38L54.98-29.38L54.98-28.86L49.66-28.86L49.66-29.38L49.66-29.38Q49.66-30.40 48.93-31.14L48.93-31.14L48.93-31.14Q48.19-31.87 47.17-31.87L47.17-31.87L24.90-31.87L24.90-31.87Q23.87-31.87 23.14-31.14L23.14-31.14L23.14-31.14Q22.40-30.40 22.40-29.38L22.40-29.38L22.40-23.68L22.40-23.68Q22.40-22.66 23.14-21.92L23.14-21.92L23.14-21.92Q23.87-21.18 24.90-21.18L24.90-21.18L47.17-21.18L47.17-21.18Q50.43-21.18 52.70-18.91L52.70-18.91L52.70-18.91Q54.98-16.64 54.98-13.44L54.98-13.44L54.98-7.74L54.98-7.74Q54.98-4.54 52.70-2.27L52.70-2.27L52.70-2.27Q50.43 0 47.17 0L47.17 0L24.90 0L24.90 0Q21.70 0 19.42-2.27L19.42-2.27L19.42-2.27Q17.15-4.54 17.15-7.74L17.15-7.74L17.15-8.26L22.40-8.26L22.40-7.74L22.40-7.74Q22.40-6.72 23.14-5.98L23.14-5.98L23.14-5.98Q23.87-5.25 24.90-5.25L24.90-5.25L47.17-5.25L47.17-5.25Q48.19-5.25 48.93-5.98L48.93-5.98L48.93-5.98Q49.66-6.72 49.66-7.74L49.66-7.74L49.66-13.44L49.66-13.44Q49.66-14.46 48.93-15.20L48.93-15.20L48.93-15.20Q48.19-15.94 47.17-15.94L47.17-15.94L24.90-15.94L24.90-15.94Q21.70-15.94 19.42-18.21L19.42-18.21L19.42-18.21Q17.15-20.48 17.15-23.68L17.15-23.68L17.15-29.38L17.15-29.38Q17.15-32.58 19.42-34.85L19.42-34.85L19.42-34.85Q21.70-37.12 24.90-37.12L24.90-37.12L47.17-37.12L47.17-37.12Q50.43-37.12 52.70-34.85L52.70-34.85L52.70-34.85Q54.98-32.58 54.98-29.38ZM82.69-37.12L82.69-31.87L66.62-31.87L66.62-7.74L66.62-7.74Q66.62-6.72 67.36-5.98L67.36-5.98L67.36-5.98Q68.10-5.25 69.12-5.25L69.12-5.25L82.69-5.25L82.69 0L69.12 0L69.12 0Q65.86 0 63.62-2.27L63.62-2.27L63.62-2.27Q61.38-4.54 61.38-7.74L61.38-7.74L61.38-49.28L66.62-49.28L66.62-37.12L82.69-37.12ZM87.55-37.12L117.57-37.12L117.57-37.12Q120.83-37.12 123.10-34.85L123.10-34.85L123.10-34.85Q125.38-32.58 125.38-29.38L125.38-29.38L125.38 0L95.30 0L95.30 0Q92.10 0 89.82-2.27L89.82-2.27L89.82-2.27Q87.55-4.54 87.55-7.74L87.55-7.74L87.55-21.18L120.06-21.18L120.06-29.38L120.06-29.38Q120.06-30.40 119.33-31.14L119.33-31.14L119.33-31.14Q118.59-31.87 117.57-31.87L117.57-31.87L87.55-31.87L87.55-37.12ZM95.30-5.25L120.06-5.25L120.06-15.94L92.80-15.94L92.80-7.74L92.80-7.74Q92.80-6.72 93.54-5.98L93.54-5.98L93.54-5.98Q94.27-5.25 95.30-5.25L95.30-5.25ZM131.14-37.12L161.22-37.12L161.22-37.12Q164.42-37.12 166.69-34.85L166.69-34.85L166.69-34.85Q168.96-32.58 168.96-29.38L168.96-29.38L168.96 0L163.71 0L163.71-29.38L163.71-29.38Q163.71-30.40 162.98-31.14L162.98-31.14L162.98-31.14Q162.24-31.87 161.22-31.87L161.22-31.87L138.94-31.87L138.94-31.87Q137.92-31.87 137.15-31.14L137.15-31.14L137.15-31.14Q136.38-30.40 136.38-29.38L136.38-29.38L136.38 0L131.14 0L131.14-37.12ZM179.65-37.12L204.48-37.12L204.48-37.12Q207.68-37.12 209.95-34.85L209.95-34.85L209.95-34.85Q212.22-32.58 212.22-29.38L212.22-29.38L212.22-7.74L212.22-7.74Q212.22-4.54 209.95-2.27L209.95-2.27L209.95-2.27Q207.68 0 204.48 0L204.48 0L174.40 0L174.40-49.28L179.65-49.28L179.65-37.12ZM206.98-7.74L206.98-7.74L206.98-29.38L206.98-29.38Q206.98-30.40 206.24-31.14L206.24-31.14L206.24-31.14Q205.50-31.87 204.48-31.87L204.48-31.87L182.21-31.87L182.21-31.87Q181.18-31.87 180.42-31.14L180.42-31.14L180.42-31.14Q179.65-30.40 179.65-29.38L179.65-29.38L179.65-7.74L179.65-7.74Q179.65-6.72 180.42-5.98L180.42-5.98L180.42-5.98Q181.18-5.25 182.21-5.25L182.21-5.25L204.48-5.25L204.48-5.25Q205.50-5.25 206.24-5.98L206.24-5.98L206.24-5.98Q206.98-6.72 206.98-7.74ZM249.60-7.74L249.60-37.12L254.85-37.12L254.85-7.74L254.85-7.74Q254.85-4.54 252.58-2.27L252.58-2.27L252.58-2.27Q250.30 0 247.04 0L247.04 0L224.77 0L224.77 0Q221.57 0 219.30-2.27L219.30-2.27L219.30-2.27Q217.02-4.54 217.02-7.74L217.02-7.74L217.02-37.12L222.27-37.12L222.27-7.74L222.27-7.74Q222.27-6.72 223.01-5.98L223.01-5.98L223.01-5.98Q223.74-5.25 224.77-5.25L224.77-5.25L247.04-5.25L247.04-5.25Q248.06-5.25 248.83-5.98L248.83-5.98L248.83-5.98Q249.60-6.72 249.60-7.74L249.60-7.74ZM261.44-7.74L261.44-49.28L266.69-49.28L266.69-7.74L266.69-7.74Q266.69-6.72 267.42-5.98L267.42-5.98L267.42-5.98Q268.16-5.25 269.18-5.25L269.18-5.25L275.46-5.25L275.46 0L269.18 0L269.18 0Q265.98 0 263.71-2.27L263.71-2.27L263.71-2.27Q261.44-4.54 261.44-7.74L261.44-7.74Z" fill="#ccc"></path></g></g><style>text {
  font-size: 64px;
  font-family: Arial Black;
  dominant-baseline: central;
  text-anchor: middle;
}</style></svg>